<mxfile host="app.diagrams.net" modified="2023-09-06T07:38:12.715Z" agent="Mozilla/5.0 (Windows NT 10.0; Win64; x64) AppleWebKit/537.36 (KHTML, like Gecko) Chrome/116.0.0.0 Safari/537.36" etag="bQQNJGLysONfccJCB8DJ" version="21.7.2" type="github" pages="3">
  <diagram id="C5RBs43oDa-KdzZeNtuy" name="Page-1">
    <mxGraphModel dx="1114" dy="578" grid="1" gridSize="10" guides="1" tooltips="1" connect="1" arrows="1" fold="1" page="1" pageScale="1" pageWidth="827" pageHeight="1169" math="0" shadow="0">
      <root>
        <mxCell id="WIyWlLk6GJQsqaUBKTNV-0" />
        <mxCell id="WIyWlLk6GJQsqaUBKTNV-1" parent="WIyWlLk6GJQsqaUBKTNV-0" />
        <mxCell id="nhABn0sEVQEOVV0ZQR1v-2" value="" style="edgeStyle=orthogonalEdgeStyle;rounded=0;orthogonalLoop=1;jettySize=auto;html=1;" edge="1" parent="WIyWlLk6GJQsqaUBKTNV-1" source="nhABn0sEVQEOVV0ZQR1v-0" target="nhABn0sEVQEOVV0ZQR1v-1">
          <mxGeometry relative="1" as="geometry" />
        </mxCell>
        <mxCell id="nhABn0sEVQEOVV0ZQR1v-4" value="" style="edgeStyle=orthogonalEdgeStyle;rounded=0;orthogonalLoop=1;jettySize=auto;html=1;" edge="1" parent="WIyWlLk6GJQsqaUBKTNV-1" source="nhABn0sEVQEOVV0ZQR1v-0" target="nhABn0sEVQEOVV0ZQR1v-3">
          <mxGeometry relative="1" as="geometry" />
        </mxCell>
        <mxCell id="nhABn0sEVQEOVV0ZQR1v-6" value="" style="edgeStyle=orthogonalEdgeStyle;rounded=0;orthogonalLoop=1;jettySize=auto;html=1;" edge="1" parent="WIyWlLk6GJQsqaUBKTNV-1" source="nhABn0sEVQEOVV0ZQR1v-0" target="nhABn0sEVQEOVV0ZQR1v-5">
          <mxGeometry relative="1" as="geometry" />
        </mxCell>
        <mxCell id="nhABn0sEVQEOVV0ZQR1v-8" value="" style="edgeStyle=orthogonalEdgeStyle;rounded=0;orthogonalLoop=1;jettySize=auto;html=1;" edge="1" parent="WIyWlLk6GJQsqaUBKTNV-1" source="nhABn0sEVQEOVV0ZQR1v-0" target="nhABn0sEVQEOVV0ZQR1v-7">
          <mxGeometry relative="1" as="geometry" />
        </mxCell>
        <mxCell id="nhABn0sEVQEOVV0ZQR1v-0" value="Library&lt;br&gt;Management&lt;br&gt;System" style="ellipse;whiteSpace=wrap;html=1;aspect=fixed;" vertex="1" parent="WIyWlLk6GJQsqaUBKTNV-1">
          <mxGeometry x="350" y="260" width="120" height="120" as="geometry" />
        </mxCell>
        <mxCell id="nhABn0sEVQEOVV0ZQR1v-1" value="Authors&lt;br&gt;Management" style="whiteSpace=wrap;html=1;" vertex="1" parent="WIyWlLk6GJQsqaUBKTNV-1">
          <mxGeometry x="550" y="290" width="120" height="60" as="geometry" />
        </mxCell>
        <mxCell id="nhABn0sEVQEOVV0ZQR1v-3" value="Books&amp;nbsp;&lt;br&gt;Management&lt;br&gt;" style="whiteSpace=wrap;html=1;" vertex="1" parent="WIyWlLk6GJQsqaUBKTNV-1">
          <mxGeometry x="350" y="90" width="120" height="60" as="geometry" />
        </mxCell>
        <mxCell id="nhABn0sEVQEOVV0ZQR1v-5" value="Login&amp;nbsp;&lt;br&gt;Management" style="whiteSpace=wrap;html=1;" vertex="1" parent="WIyWlLk6GJQsqaUBKTNV-1">
          <mxGeometry x="350" y="490" width="120" height="60" as="geometry" />
        </mxCell>
        <mxCell id="nhABn0sEVQEOVV0ZQR1v-7" value="Publisher&lt;br&gt;Management" style="whiteSpace=wrap;html=1;" vertex="1" parent="WIyWlLk6GJQsqaUBKTNV-1">
          <mxGeometry x="150" y="290" width="120" height="60" as="geometry" />
        </mxCell>
        <mxCell id="nhABn0sEVQEOVV0ZQR1v-10" value="" style="endArrow=classic;startArrow=classic;html=1;rounded=0;exitX=1;exitY=0;exitDx=0;exitDy=0;" edge="1" parent="WIyWlLk6GJQsqaUBKTNV-1" source="nhABn0sEVQEOVV0ZQR1v-0">
          <mxGeometry width="50" height="50" relative="1" as="geometry">
            <mxPoint x="390" y="330" as="sourcePoint" />
            <mxPoint x="550" y="180" as="targetPoint" />
            <Array as="points" />
          </mxGeometry>
        </mxCell>
        <mxCell id="nhABn0sEVQEOVV0ZQR1v-11" value="System&amp;nbsp;&lt;br&gt;User&lt;br&gt;Management" style="rounded=0;whiteSpace=wrap;html=1;" vertex="1" parent="WIyWlLk6GJQsqaUBKTNV-1">
          <mxGeometry x="550" y="130" width="120" height="60" as="geometry" />
        </mxCell>
        <mxCell id="nhABn0sEVQEOVV0ZQR1v-13" value="" style="endArrow=classic;startArrow=classic;html=1;rounded=0;entryX=0;entryY=1;entryDx=0;entryDy=0;" edge="1" parent="WIyWlLk6GJQsqaUBKTNV-1" target="nhABn0sEVQEOVV0ZQR1v-0">
          <mxGeometry width="50" height="50" relative="1" as="geometry">
            <mxPoint x="260" y="480" as="sourcePoint" />
            <mxPoint x="440" y="280" as="targetPoint" />
          </mxGeometry>
        </mxCell>
        <mxCell id="nhABn0sEVQEOVV0ZQR1v-14" value="Library&lt;br&gt;Mangement" style="rounded=0;whiteSpace=wrap;html=1;" vertex="1" parent="WIyWlLk6GJQsqaUBKTNV-1">
          <mxGeometry x="160" y="480" width="120" height="60" as="geometry" />
        </mxCell>
        <mxCell id="nhABn0sEVQEOVV0ZQR1v-15" value="Zero level DFD" style="rounded=1;whiteSpace=wrap;html=1;" vertex="1" parent="WIyWlLk6GJQsqaUBKTNV-1">
          <mxGeometry x="270" y="585" width="300" height="60" as="geometry" />
        </mxCell>
      </root>
    </mxGraphModel>
  </diagram>
  <diagram id="sQRDtwUryFBmNn3GtXns" name="Page-2">
    <mxGraphModel dx="1114" dy="578" grid="1" gridSize="10" guides="1" tooltips="1" connect="1" arrows="1" fold="1" page="1" pageScale="1" pageWidth="850" pageHeight="1100" math="0" shadow="0">
      <root>
        <mxCell id="0" />
        <mxCell id="1" parent="0" />
        <mxCell id="gZAY-Lkk1mpSFKTFYzat-1" value="Library&lt;br&gt;Management&lt;br&gt;System" style="ellipse;whiteSpace=wrap;html=1;aspect=fixed;" vertex="1" parent="1">
          <mxGeometry x="370" y="330" width="140" height="140" as="geometry" />
        </mxCell>
        <mxCell id="gZAY-Lkk1mpSFKTFYzat-3" value="" style="endArrow=classic;html=1;rounded=0;exitX=0.5;exitY=0;exitDx=0;exitDy=0;" edge="1" parent="1" source="gZAY-Lkk1mpSFKTFYzat-1">
          <mxGeometry width="50" height="50" relative="1" as="geometry">
            <mxPoint x="480" y="320" as="sourcePoint" />
            <mxPoint x="640" y="80" as="targetPoint" />
          </mxGeometry>
        </mxCell>
        <mxCell id="gZAY-Lkk1mpSFKTFYzat-5" value="" style="endArrow=classic;html=1;rounded=0;" edge="1" parent="1" source="gZAY-Lkk1mpSFKTFYzat-1">
          <mxGeometry width="50" height="50" relative="1" as="geometry">
            <mxPoint x="400" y="350" as="sourcePoint" />
            <mxPoint x="670" y="160" as="targetPoint" />
          </mxGeometry>
        </mxCell>
        <mxCell id="gZAY-Lkk1mpSFKTFYzat-6" value="" style="endArrow=classic;html=1;rounded=0;exitX=1;exitY=0.429;exitDx=0;exitDy=0;exitPerimeter=0;" edge="1" parent="1" source="gZAY-Lkk1mpSFKTFYzat-1">
          <mxGeometry width="50" height="50" relative="1" as="geometry">
            <mxPoint x="520" y="390" as="sourcePoint" />
            <mxPoint x="720" y="280" as="targetPoint" />
          </mxGeometry>
        </mxCell>
        <mxCell id="gZAY-Lkk1mpSFKTFYzat-7" value="" style="endArrow=classic;html=1;rounded=0;exitX=1;exitY=0.5;exitDx=0;exitDy=0;" edge="1" parent="1" source="gZAY-Lkk1mpSFKTFYzat-1">
          <mxGeometry width="50" height="50" relative="1" as="geometry">
            <mxPoint x="520" y="410" as="sourcePoint" />
            <mxPoint x="720" y="400" as="targetPoint" />
          </mxGeometry>
        </mxCell>
        <mxCell id="gZAY-Lkk1mpSFKTFYzat-8" value="" style="endArrow=classic;html=1;rounded=0;" edge="1" parent="1" source="gZAY-Lkk1mpSFKTFYzat-1">
          <mxGeometry width="50" height="50" relative="1" as="geometry">
            <mxPoint x="400" y="450" as="sourcePoint" />
            <mxPoint x="680" y="560" as="targetPoint" />
          </mxGeometry>
        </mxCell>
        <mxCell id="gZAY-Lkk1mpSFKTFYzat-9" value="" style="endArrow=classic;html=1;rounded=0;exitX=0.664;exitY=0.993;exitDx=0;exitDy=0;exitPerimeter=0;" edge="1" parent="1" source="gZAY-Lkk1mpSFKTFYzat-1">
          <mxGeometry width="50" height="50" relative="1" as="geometry">
            <mxPoint x="400" y="450" as="sourcePoint" />
            <mxPoint x="680" y="680" as="targetPoint" />
            <Array as="points" />
          </mxGeometry>
        </mxCell>
        <mxCell id="gZAY-Lkk1mpSFKTFYzat-10" value="Generate Library Report" style="rounded=0;whiteSpace=wrap;html=1;" vertex="1" parent="1">
          <mxGeometry x="640" y="40" width="170" height="60" as="geometry" />
        </mxCell>
        <mxCell id="gZAY-Lkk1mpSFKTFYzat-11" value="Generate&lt;br&gt;Authors Report" style="rounded=0;whiteSpace=wrap;html=1;" vertex="1" parent="1">
          <mxGeometry x="670" y="130" width="150" height="60" as="geometry" />
        </mxCell>
        <mxCell id="gZAY-Lkk1mpSFKTFYzat-12" value="Generate Books Report" style="rounded=0;whiteSpace=wrap;html=1;" vertex="1" parent="1">
          <mxGeometry x="720" y="250" width="120" height="60" as="geometry" />
        </mxCell>
        <mxCell id="gZAY-Lkk1mpSFKTFYzat-13" value="Generate Books&lt;br&gt;Issue Report" style="rounded=0;whiteSpace=wrap;html=1;" vertex="1" parent="1">
          <mxGeometry x="720" y="370" width="120" height="60" as="geometry" />
        </mxCell>
        <mxCell id="gZAY-Lkk1mpSFKTFYzat-14" value="Check User Login Details" style="rounded=0;whiteSpace=wrap;html=1;" vertex="1" parent="1">
          <mxGeometry x="685" y="520" width="145" height="60" as="geometry" />
        </mxCell>
        <mxCell id="gZAY-Lkk1mpSFKTFYzat-15" value="Generate System User Report" style="rounded=0;whiteSpace=wrap;html=1;" vertex="1" parent="1">
          <mxGeometry x="685" y="650" width="145" height="60" as="geometry" />
        </mxCell>
        <mxCell id="gZAY-Lkk1mpSFKTFYzat-16" value="" style="endArrow=classic;html=1;rounded=0;entryX=0;entryY=0;entryDx=0;entryDy=0;" edge="1" parent="1" target="gZAY-Lkk1mpSFKTFYzat-1">
          <mxGeometry width="50" height="50" relative="1" as="geometry">
            <mxPoint x="160" y="120" as="sourcePoint" />
            <mxPoint x="450" y="100" as="targetPoint" />
            <Array as="points">
              <mxPoint x="280" y="240" />
            </Array>
          </mxGeometry>
        </mxCell>
        <mxCell id="gZAY-Lkk1mpSFKTFYzat-17" value="" style="endArrow=classic;html=1;rounded=0;entryX=0.021;entryY=0.293;entryDx=0;entryDy=0;entryPerimeter=0;" edge="1" parent="1" target="gZAY-Lkk1mpSFKTFYzat-1">
          <mxGeometry width="50" height="50" relative="1" as="geometry">
            <mxPoint x="120" y="240" as="sourcePoint" />
            <mxPoint x="450" y="300" as="targetPoint" />
          </mxGeometry>
        </mxCell>
        <mxCell id="gZAY-Lkk1mpSFKTFYzat-18" value="" style="endArrow=classic;html=1;rounded=0;entryX=0;entryY=0.5;entryDx=0;entryDy=0;" edge="1" parent="1" target="gZAY-Lkk1mpSFKTFYzat-1">
          <mxGeometry width="50" height="50" relative="1" as="geometry">
            <mxPoint x="150" y="400" as="sourcePoint" />
            <mxPoint x="450" y="300" as="targetPoint" />
          </mxGeometry>
        </mxCell>
        <mxCell id="gZAY-Lkk1mpSFKTFYzat-20" value="" style="endArrow=classic;html=1;rounded=0;entryX=0.071;entryY=0.8;entryDx=0;entryDy=0;entryPerimeter=0;" edge="1" parent="1" target="gZAY-Lkk1mpSFKTFYzat-1">
          <mxGeometry width="50" height="50" relative="1" as="geometry">
            <mxPoint x="120" y="600" as="sourcePoint" />
            <mxPoint x="450" y="400" as="targetPoint" />
          </mxGeometry>
        </mxCell>
        <mxCell id="gZAY-Lkk1mpSFKTFYzat-21" value="" style="endArrow=classic;html=1;rounded=0;entryX=0.321;entryY=0.95;entryDx=0;entryDy=0;entryPerimeter=0;" edge="1" parent="1" target="gZAY-Lkk1mpSFKTFYzat-1">
          <mxGeometry width="50" height="50" relative="1" as="geometry">
            <mxPoint x="200" y="720" as="sourcePoint" />
            <mxPoint x="450" y="500" as="targetPoint" />
          </mxGeometry>
        </mxCell>
        <mxCell id="gZAY-Lkk1mpSFKTFYzat-22" value="Library Management" style="rounded=0;whiteSpace=wrap;html=1;" vertex="1" parent="1">
          <mxGeometry x="30" y="80" width="130" height="60" as="geometry" />
        </mxCell>
        <mxCell id="gZAY-Lkk1mpSFKTFYzat-23" value="Authors Managment" style="rounded=0;whiteSpace=wrap;html=1;" vertex="1" parent="1">
          <mxGeometry x="10" y="210" width="120" height="60" as="geometry" />
        </mxCell>
        <mxCell id="gZAY-Lkk1mpSFKTFYzat-24" value="Books&lt;br&gt;Management" style="rounded=0;whiteSpace=wrap;html=1;" vertex="1" parent="1">
          <mxGeometry x="20" y="370" width="120" height="60" as="geometry" />
        </mxCell>
        <mxCell id="gZAY-Lkk1mpSFKTFYzat-25" value="Book Issue&lt;br&gt;Management" style="rounded=0;whiteSpace=wrap;html=1;" vertex="1" parent="1">
          <mxGeometry y="580" width="120" height="60" as="geometry" />
        </mxCell>
        <mxCell id="gZAY-Lkk1mpSFKTFYzat-26" value="Login Management" style="rounded=0;whiteSpace=wrap;html=1;" vertex="1" parent="1">
          <mxGeometry x="80" y="690" width="120" height="60" as="geometry" />
        </mxCell>
        <mxCell id="gZAY-Lkk1mpSFKTFYzat-27" value="System User Mangement" style="rounded=0;whiteSpace=wrap;html=1;" vertex="1" parent="1">
          <mxGeometry x="10" y="480" width="120" height="60" as="geometry" />
        </mxCell>
        <mxCell id="gZAY-Lkk1mpSFKTFYzat-29" value="" style="endArrow=classic;html=1;rounded=0;exitX=1;exitY=0.5;exitDx=0;exitDy=0;entryX=0.007;entryY=0.679;entryDx=0;entryDy=0;entryPerimeter=0;" edge="1" parent="1" source="gZAY-Lkk1mpSFKTFYzat-27" target="gZAY-Lkk1mpSFKTFYzat-1">
          <mxGeometry width="50" height="50" relative="1" as="geometry">
            <mxPoint x="400" y="350" as="sourcePoint" />
            <mxPoint x="450" y="300" as="targetPoint" />
          </mxGeometry>
        </mxCell>
        <mxCell id="gZAY-Lkk1mpSFKTFYzat-30" value="First Level DFD" style="rounded=1;whiteSpace=wrap;html=1;" vertex="1" parent="1">
          <mxGeometry x="190" y="810" width="480" height="60" as="geometry" />
        </mxCell>
      </root>
    </mxGraphModel>
  </diagram>
  <diagram id="Aj-ldhRQy3JqHi8gL-Ju" name="Page-3">
    <mxGraphModel dx="1114" dy="578" grid="1" gridSize="10" guides="1" tooltips="1" connect="1" arrows="1" fold="1" page="1" pageScale="1" pageWidth="850" pageHeight="1100" math="0" shadow="0">
      <root>
        <mxCell id="0" />
        <mxCell id="1" parent="0" />
        <mxCell id="sRt37nygReyLsl_fxUr2-9" style="edgeStyle=orthogonalEdgeStyle;rounded=0;orthogonalLoop=1;jettySize=auto;html=1;exitX=1;exitY=0.5;exitDx=0;exitDy=0;entryX=0;entryY=0.5;entryDx=0;entryDy=0;" edge="1" parent="1" source="sRt37nygReyLsl_fxUr2-1" target="sRt37nygReyLsl_fxUr2-2">
          <mxGeometry relative="1" as="geometry" />
        </mxCell>
        <mxCell id="sRt37nygReyLsl_fxUr2-11" style="edgeStyle=orthogonalEdgeStyle;rounded=0;orthogonalLoop=1;jettySize=auto;html=1;exitX=0.5;exitY=1;exitDx=0;exitDy=0;entryX=0.5;entryY=0;entryDx=0;entryDy=0;" edge="1" parent="1" source="sRt37nygReyLsl_fxUr2-1" target="sRt37nygReyLsl_fxUr2-3">
          <mxGeometry relative="1" as="geometry" />
        </mxCell>
        <mxCell id="sRt37nygReyLsl_fxUr2-1" value="Login to system" style="ellipse;whiteSpace=wrap;html=1;aspect=fixed;" vertex="1" parent="1">
          <mxGeometry x="270" y="150" width="80" height="80" as="geometry" />
        </mxCell>
        <mxCell id="sRt37nygReyLsl_fxUr2-10" style="edgeStyle=orthogonalEdgeStyle;rounded=0;orthogonalLoop=1;jettySize=auto;html=1;exitX=0.5;exitY=1;exitDx=0;exitDy=0;entryX=0.5;entryY=0;entryDx=0;entryDy=0;" edge="1" parent="1" source="sRt37nygReyLsl_fxUr2-2" target="sRt37nygReyLsl_fxUr2-4">
          <mxGeometry relative="1" as="geometry" />
        </mxCell>
        <mxCell id="sRt37nygReyLsl_fxUr2-2" value="Check Roles&lt;br&gt;of access" style="ellipse;whiteSpace=wrap;html=1;aspect=fixed;" vertex="1" parent="1">
          <mxGeometry x="400" y="150" width="80" height="80" as="geometry" />
        </mxCell>
        <mxCell id="sRt37nygReyLsl_fxUr2-3" value="Check Credentials" style="ellipse;whiteSpace=wrap;html=1;aspect=fixed;" vertex="1" parent="1">
          <mxGeometry x="270" y="280" width="80" height="80" as="geometry" />
        </mxCell>
        <mxCell id="sRt37nygReyLsl_fxUr2-44" style="edgeStyle=orthogonalEdgeStyle;rounded=0;orthogonalLoop=1;jettySize=auto;html=1;exitX=0.5;exitY=1;exitDx=0;exitDy=0;entryX=0.125;entryY=-0.033;entryDx=0;entryDy=0;entryPerimeter=0;" edge="1" parent="1" source="sRt37nygReyLsl_fxUr2-4" target="sRt37nygReyLsl_fxUr2-37">
          <mxGeometry relative="1" as="geometry" />
        </mxCell>
        <mxCell id="sRt37nygReyLsl_fxUr2-4" value="Manage&lt;br&gt;Modules" style="ellipse;whiteSpace=wrap;html=1;aspect=fixed;" vertex="1" parent="1">
          <mxGeometry x="400" y="280" width="80" height="80" as="geometry" />
        </mxCell>
        <mxCell id="sRt37nygReyLsl_fxUr2-15" style="edgeStyle=orthogonalEdgeStyle;rounded=0;orthogonalLoop=1;jettySize=auto;html=1;exitX=0.5;exitY=1;exitDx=0;exitDy=0;entryX=0.5;entryY=0;entryDx=0;entryDy=0;" edge="1" parent="1" source="sRt37nygReyLsl_fxUr2-5" target="sRt37nygReyLsl_fxUr2-6">
          <mxGeometry relative="1" as="geometry" />
        </mxCell>
        <mxCell id="sRt37nygReyLsl_fxUr2-5" value="Forgot Password" style="ellipse;whiteSpace=wrap;html=1;aspect=fixed;" vertex="1" parent="1">
          <mxGeometry x="110" y="280" width="80" height="80" as="geometry" />
        </mxCell>
        <mxCell id="sRt37nygReyLsl_fxUr2-6" value="Send email to user" style="ellipse;whiteSpace=wrap;html=1;aspect=fixed;" vertex="1" parent="1">
          <mxGeometry x="110" y="400" width="80" height="80" as="geometry" />
        </mxCell>
        <mxCell id="sRt37nygReyLsl_fxUr2-8" style="edgeStyle=orthogonalEdgeStyle;rounded=0;orthogonalLoop=1;jettySize=auto;html=1;exitX=1;exitY=0.5;exitDx=0;exitDy=0;entryX=0;entryY=0.5;entryDx=0;entryDy=0;" edge="1" parent="1" source="sRt37nygReyLsl_fxUr2-7" target="sRt37nygReyLsl_fxUr2-1">
          <mxGeometry relative="1" as="geometry" />
        </mxCell>
        <mxCell id="sRt37nygReyLsl_fxUr2-13" value="" style="edgeStyle=orthogonalEdgeStyle;rounded=0;orthogonalLoop=1;jettySize=auto;html=1;" edge="1" parent="1" source="sRt37nygReyLsl_fxUr2-7" target="sRt37nygReyLsl_fxUr2-5">
          <mxGeometry relative="1" as="geometry" />
        </mxCell>
        <mxCell id="sRt37nygReyLsl_fxUr2-7" value="Admin" style="rounded=0;whiteSpace=wrap;html=1;" vertex="1" parent="1">
          <mxGeometry x="90" y="160" width="120" height="60" as="geometry" />
        </mxCell>
        <mxCell id="sRt37nygReyLsl_fxUr2-12" value="" style="endArrow=classic;html=1;rounded=0;exitX=1;exitY=0;exitDx=0;exitDy=0;entryX=0;entryY=1;entryDx=0;entryDy=0;" edge="1" parent="1" source="sRt37nygReyLsl_fxUr2-3" target="sRt37nygReyLsl_fxUr2-2">
          <mxGeometry width="50" height="50" relative="1" as="geometry">
            <mxPoint x="400" y="330" as="sourcePoint" />
            <mxPoint x="450" y="280" as="targetPoint" />
          </mxGeometry>
        </mxCell>
        <mxCell id="sRt37nygReyLsl_fxUr2-16" value="Manage Book Details" style="rounded=0;whiteSpace=wrap;html=1;" vertex="1" parent="1">
          <mxGeometry x="600" y="160" width="160" height="50" as="geometry" />
        </mxCell>
        <mxCell id="sRt37nygReyLsl_fxUr2-21" value="Manage Issue Book Details" style="rounded=0;whiteSpace=wrap;html=1;" vertex="1" parent="1">
          <mxGeometry x="600" y="240" width="160" height="50" as="geometry" />
        </mxCell>
        <mxCell id="sRt37nygReyLsl_fxUr2-23" value="Manage Author Details" style="rounded=0;whiteSpace=wrap;html=1;" vertex="1" parent="1">
          <mxGeometry x="600" y="320" width="160" height="50" as="geometry" />
        </mxCell>
        <mxCell id="sRt37nygReyLsl_fxUr2-26" value="Manage Category Details" style="rounded=0;whiteSpace=wrap;html=1;" vertex="1" parent="1">
          <mxGeometry x="600" y="400" width="160" height="50" as="geometry" />
        </mxCell>
        <mxCell id="sRt37nygReyLsl_fxUr2-28" value="Manage Publisher details" style="rounded=0;whiteSpace=wrap;html=1;" vertex="1" parent="1">
          <mxGeometry x="600" y="480" width="160" height="50" as="geometry" />
        </mxCell>
        <mxCell id="sRt37nygReyLsl_fxUr2-30" value="Manage Report" style="rounded=0;whiteSpace=wrap;html=1;" vertex="1" parent="1">
          <mxGeometry x="600" y="560" width="160" height="50" as="geometry" />
        </mxCell>
        <mxCell id="sRt37nygReyLsl_fxUr2-32" value="Manage Library Details" style="rounded=0;whiteSpace=wrap;html=1;" vertex="1" parent="1">
          <mxGeometry x="600" y="70" width="160" height="50" as="geometry" />
        </mxCell>
        <mxCell id="sRt37nygReyLsl_fxUr2-34" value="Manage System Admins" style="rounded=0;whiteSpace=wrap;html=1;" vertex="1" parent="1">
          <mxGeometry x="100" y="550" width="120" height="60" as="geometry" />
        </mxCell>
        <mxCell id="sRt37nygReyLsl_fxUr2-35" value="Manage Roles of User" style="rounded=0;whiteSpace=wrap;html=1;" vertex="1" parent="1">
          <mxGeometry x="270" y="550" width="120" height="60" as="geometry" />
        </mxCell>
        <mxCell id="sRt37nygReyLsl_fxUr2-37" value="Manage User Permission" style="rounded=0;whiteSpace=wrap;html=1;" vertex="1" parent="1">
          <mxGeometry x="425" y="550" width="120" height="60" as="geometry" />
        </mxCell>
        <mxCell id="sRt37nygReyLsl_fxUr2-46" value="" style="endArrow=classic;html=1;rounded=0;exitX=1;exitY=0;exitDx=0;exitDy=0;entryX=0;entryY=0.5;entryDx=0;entryDy=0;" edge="1" parent="1" source="sRt37nygReyLsl_fxUr2-4" target="sRt37nygReyLsl_fxUr2-16">
          <mxGeometry width="50" height="50" relative="1" as="geometry">
            <mxPoint x="400" y="450" as="sourcePoint" />
            <mxPoint x="450" y="400" as="targetPoint" />
          </mxGeometry>
        </mxCell>
        <mxCell id="sRt37nygReyLsl_fxUr2-47" value="" style="endArrow=classic;html=1;rounded=0;exitX=1;exitY=0.413;exitDx=0;exitDy=0;exitPerimeter=0;entryX=0;entryY=0.5;entryDx=0;entryDy=0;" edge="1" parent="1" source="sRt37nygReyLsl_fxUr2-4" target="sRt37nygReyLsl_fxUr2-21">
          <mxGeometry width="50" height="50" relative="1" as="geometry">
            <mxPoint x="520" y="350" as="sourcePoint" />
            <mxPoint x="490" y="430" as="targetPoint" />
          </mxGeometry>
        </mxCell>
        <mxCell id="sRt37nygReyLsl_fxUr2-48" value="" style="endArrow=classic;html=1;rounded=0;entryX=0;entryY=0.5;entryDx=0;entryDy=0;exitX=1;exitY=0.688;exitDx=0;exitDy=0;exitPerimeter=0;" edge="1" parent="1" source="sRt37nygReyLsl_fxUr2-4" target="sRt37nygReyLsl_fxUr2-23">
          <mxGeometry width="50" height="50" relative="1" as="geometry">
            <mxPoint x="400" y="450" as="sourcePoint" />
            <mxPoint x="450" y="400" as="targetPoint" />
          </mxGeometry>
        </mxCell>
        <mxCell id="sRt37nygReyLsl_fxUr2-49" value="" style="endArrow=classic;html=1;rounded=0;entryX=0;entryY=0.5;entryDx=0;entryDy=0;exitX=1;exitY=1;exitDx=0;exitDy=0;" edge="1" parent="1" source="sRt37nygReyLsl_fxUr2-4" target="sRt37nygReyLsl_fxUr2-26">
          <mxGeometry width="50" height="50" relative="1" as="geometry">
            <mxPoint x="400" y="450" as="sourcePoint" />
            <mxPoint x="450" y="400" as="targetPoint" />
          </mxGeometry>
        </mxCell>
        <mxCell id="sRt37nygReyLsl_fxUr2-50" value="" style="endArrow=classic;html=1;rounded=0;entryX=0;entryY=0.25;entryDx=0;entryDy=0;exitX=0.688;exitY=0.95;exitDx=0;exitDy=0;exitPerimeter=0;" edge="1" parent="1" source="sRt37nygReyLsl_fxUr2-4" target="sRt37nygReyLsl_fxUr2-28">
          <mxGeometry width="50" height="50" relative="1" as="geometry">
            <mxPoint x="400" y="550" as="sourcePoint" />
            <mxPoint x="450" y="500" as="targetPoint" />
          </mxGeometry>
        </mxCell>
        <mxCell id="sRt37nygReyLsl_fxUr2-51" value="" style="endArrow=classic;html=1;rounded=0;entryX=0;entryY=0.25;entryDx=0;entryDy=0;exitX=0.625;exitY=0.975;exitDx=0;exitDy=0;exitPerimeter=0;" edge="1" parent="1" source="sRt37nygReyLsl_fxUr2-4" target="sRt37nygReyLsl_fxUr2-30">
          <mxGeometry width="50" height="50" relative="1" as="geometry">
            <mxPoint x="400" y="550" as="sourcePoint" />
            <mxPoint x="450" y="500" as="targetPoint" />
          </mxGeometry>
        </mxCell>
        <mxCell id="sRt37nygReyLsl_fxUr2-52" value="" style="endArrow=classic;html=1;rounded=0;entryX=0;entryY=0.25;entryDx=0;entryDy=0;exitX=0.713;exitY=0.05;exitDx=0;exitDy=0;exitPerimeter=0;" edge="1" parent="1" source="sRt37nygReyLsl_fxUr2-4" target="sRt37nygReyLsl_fxUr2-32">
          <mxGeometry width="50" height="50" relative="1" as="geometry">
            <mxPoint x="400" y="350" as="sourcePoint" />
            <mxPoint x="450" y="300" as="targetPoint" />
          </mxGeometry>
        </mxCell>
        <mxCell id="sRt37nygReyLsl_fxUr2-53" value="" style="endArrow=classic;html=1;rounded=0;entryX=0.5;entryY=0;entryDx=0;entryDy=0;exitX=0;exitY=1;exitDx=0;exitDy=0;" edge="1" parent="1" source="sRt37nygReyLsl_fxUr2-4" target="sRt37nygReyLsl_fxUr2-35">
          <mxGeometry width="50" height="50" relative="1" as="geometry">
            <mxPoint x="400" y="450" as="sourcePoint" />
            <mxPoint x="450" y="400" as="targetPoint" />
          </mxGeometry>
        </mxCell>
        <mxCell id="sRt37nygReyLsl_fxUr2-54" value="" style="endArrow=classic;html=1;rounded=0;entryX=0.5;entryY=0;entryDx=0;entryDy=0;exitX=0.013;exitY=0.663;exitDx=0;exitDy=0;exitPerimeter=0;" edge="1" parent="1" source="sRt37nygReyLsl_fxUr2-4" target="sRt37nygReyLsl_fxUr2-34">
          <mxGeometry width="50" height="50" relative="1" as="geometry">
            <mxPoint x="400" y="450" as="sourcePoint" />
            <mxPoint x="450" y="400" as="targetPoint" />
          </mxGeometry>
        </mxCell>
        <mxCell id="sRt37nygReyLsl_fxUr2-55" value="Second level DFD" style="rounded=1;whiteSpace=wrap;html=1;" vertex="1" parent="1">
          <mxGeometry x="270" y="670" width="290" height="60" as="geometry" />
        </mxCell>
      </root>
    </mxGraphModel>
  </diagram>
</mxfile>
